<?xml version="1.0" encoding="iso-8859-1"?>
<!-- Uploaded to: SVG Repo, www.svgrepo.com, Generator: SVG Repo Mixer Tools -->
<svg height="800px" width="800px" version="1.1" id="Layer_1" xmlns="http://www.w3.org/2000/svg" xmlns:xlink="http://www.w3.org/1999/xlink" 
	 viewBox="0 0 469.333 469.333" xml:space="preserve">
<g style="opacity:0.5;">
	<path style="fill:#FFFFFF;" d="M458.667,437.333c0,11.787-9.547,21.333-21.333,21.333h-256c-11.787,0-21.333-9.547-21.333-21.333
		V74.667c0-11.787,9.547-21.333,21.333-21.333h256c11.787,0,21.333,9.547,21.333,21.333V437.333z"/>
	<path d="M437.333,469.333h-256c-17.643,0-32-14.357-32-32V74.667c0-17.643,14.357-32,32-32h256c17.643,0,32,14.357,32,32v362.667
		C469.333,454.976,454.976,469.333,437.333,469.333z M181.333,64c-5.888,0-10.667,4.789-10.667,10.667v362.667
		c0,5.877,4.779,10.667,10.667,10.667h256c5.888,0,10.667-4.789,10.667-10.667V74.667C448,68.789,443.221,64,437.333,64H181.333z"/>
	<path style="fill:#D94452;" d="M416,96H202.667V74.667c0-35.349,28.651-64,64-64H352c35.349,0,64,28.651,64,64V96z"/>
	<path d="M416,106.667H202.667C196.768,106.667,192,101.888,192,96V74.667C192,33.493,225.504,0,266.667,0H352
		c41.163,0,74.667,33.493,74.667,74.667V96C426.667,101.888,421.899,106.667,416,106.667z M213.333,85.333h192V74.667
		c0-29.408-23.925-53.333-53.333-53.333h-85.333c-29.408,0-53.333,23.925-53.333,53.333V85.333z"/>
	<circle cx="309.333" cy="53.333" r="10.667"/>
	<g>
		<path d="M394.667,160H224c-5.899,0-10.667-4.779-10.667-10.667s4.768-10.667,10.667-10.667h170.667
			c5.899,0,10.667,4.779,10.667,10.667S400.565,160,394.667,160z"/>
		<path d="M309.333,213.333H224c-5.899,0-10.667-4.779-10.667-10.667S218.101,192,224,192h85.333
			c5.899,0,10.667,4.779,10.667,10.667S315.232,213.333,309.333,213.333z"/>
		<path d="M394.667,213.333H352c-5.899,0-10.667-4.779-10.667-10.667S346.101,192,352,192h42.667
			c5.899,0,10.667,4.779,10.667,10.667S400.565,213.333,394.667,213.333z"/>
		<path d="M394.667,266.667h-85.333c-5.899,0-10.667-4.779-10.667-10.667s4.768-10.667,10.667-10.667h85.333
			c5.899,0,10.667,4.779,10.667,10.667S400.565,266.667,394.667,266.667z"/>
		<path d="M266.667,266.667H224c-5.899,0-10.667-4.779-10.667-10.667s4.768-10.667,10.667-10.667h42.667
			c5.899,0,10.667,4.779,10.667,10.667S272.565,266.667,266.667,266.667z"/>
		<path d="M394.667,373.333h-85.333c-5.899,0-10.667-4.779-10.667-10.667c0-5.888,4.768-10.667,10.667-10.667h85.333
			c5.899,0,10.667,4.779,10.667,10.667C405.333,368.555,400.565,373.333,394.667,373.333z"/>
		<path d="M266.667,373.333H224c-5.899,0-10.667-4.779-10.667-10.667c0-5.888,4.768-10.667,10.667-10.667h42.667
			c5.899,0,10.667,4.779,10.667,10.667C277.333,368.555,272.565,373.333,266.667,373.333z"/>
		<path d="M309.333,320H224c-5.899,0-10.667-4.779-10.667-10.667s4.768-10.667,10.667-10.667h85.333
			c5.899,0,10.667,4.779,10.667,10.667S315.232,320,309.333,320z"/>
		<path d="M394.667,320H352c-5.899,0-10.667-4.779-10.667-10.667s4.768-10.667,10.667-10.667h42.667
			c5.899,0,10.667,4.779,10.667,10.667S400.565,320,394.667,320z"/>
	</g>
</g>
<circle style="fill:#F5B945;" cx="373.333" cy="266.667" r="53.333"/>
<circle cx="373.333" cy="266.667" r="10.667"/>
<path d="M437.333,266.667c0-35.296-28.704-64-64-64s-64,28.704-64,64c0,31.648,23.115,57.931,53.333,63.04V416
	c0,17.643-14.357,32-32,32H320c-17.643,0-32-14.357-32-32v-42.667C288,343.925,264.075,320,234.667,320H224
	c-29.408,0-53.333,23.925-53.333,53.333V416c0,17.643-14.357,32-32,32H128c-17.643,0-32-14.357-32-32V233.931
	c42.027-5.28,74.667-41.163,74.667-84.597v-42.667V96V32c0-11.765-9.568-21.333-21.333-21.333H128
	c-5.899,0-10.667,4.779-10.667,10.667S122.101,32,128,32h21.333v64v10.667c0,35.296-28.704,64-64,64s-64-28.704-64-64V96V32h21.333
	c5.899,0,10.667-4.779,10.667-10.667s-4.768-10.667-10.667-10.667H21.333C9.568,10.667,0,20.235,0,32v64v10.667v42.667
	c0,43.435,32.64,79.317,74.667,84.597V416c0,29.408,23.925,53.333,53.333,53.333h10.667C168.075,469.333,192,445.408,192,416
	v-42.667c0-17.643,14.357-32,32-32h10.667c17.643,0,32,14.357,32,32V416c0,29.408,23.925,53.333,53.333,53.333h10.667
	C360.075,469.333,384,445.408,384,416v-86.293C414.219,324.597,437.333,298.315,437.333,266.667z M23.403,165.195
	C38.976,181.664,60.949,192,85.333,192s46.357-10.336,61.931-26.805c-7.083,27.627-32.128,48.139-61.931,48.139
	S30.485,192.821,23.403,165.195z M373.333,309.333c-23.531,0-42.667-19.136-42.667-42.667c0-23.531,19.136-42.667,42.667-42.667
	S416,243.136,416,266.667C416,290.197,396.864,309.333,373.333,309.333z"/>
</svg>